<svg xmlns="http://www.w3.org/2000/svg" width="64" height="64" fill="none" viewBox="0 0 64 64"><g clip-path="url(#a)"><circle cx="32" cy="32" r="32" fill="url(#b)"/><path fill="#fff" fill-rule="evenodd" d="m35.509 48.61-.77 3.405a.99.99 0 0 1-1.117.764q-1.762-.273-3.566-.62a.994.994 0 0 1-.78-1.197l.698-3.083q-.733-.143-1.474-.31a56 56 0 0 1-1.321-.317l-.697 3.082a.994.994 0 0 1-1.218.745q-1.777-.461-3.486-.97a.99.99 0 0 1-.68-1.17l.765-3.388c-7.57-3.035-12.348-8.194-10.32-17.004l.489-2.158c1.962-8.843 8.493-11.435 16.63-10.914l.766-3.385a.99.99 0 0 1 1.119-.764q1.76.276 3.563.624a.994.994 0 0 1 .78 1.197l-.697 3.082q.66.132 1.33.282.74.166 1.463.351l.696-3.08a.994.994 0 0 1 1.22-.745q1.776.464 3.485.974c.5.15.794.662.68 1.17l-.769 3.396c7.471 3.035 12.14 8.19 10.16 16.951l-.489 2.159c-1.946 8.768-8.406 11.393-16.46 10.923m10.983-12.677.274-1.215C48.7 26.681 42.27 23.68 34.341 21.771c-8.015-1.696-15.112-1.753-16.823 6.335l-.275 1.214c-1.943 8.074 4.489 11.076 12.454 12.993 7.978 1.687 15.075 1.744 16.795-6.38" clip-rule="evenodd"/></g><defs><linearGradient id="b" x1="32" x2="32" y1="0" y2="64" gradientUnits="userSpaceOnUse"><stop stop-color="#06F"/><stop offset="1" stop-color="#06F"/></linearGradient><clipPath id="a"><path fill="#fff" d="M0 0h64v64H0z"/></clipPath></defs></svg>